<svg width="179" height="44" viewBox="0 0 179 44" fill="none" xmlns="http://www.w3.org/2000/svg">
<rect width="45" height="44" fill="#4298C9"/>
<path d="M34.7258 11.7695C33.2733 9.90389 31.7483 9.03525 29.9322 9.03525C28.7678 9.03525 27.6137 9.39766 26.4966 9.74878C25.344 10.1112 24.1515 10.4849 22.9147 10.4849C21.6986 10.4849 20.4987 10.1027 19.3402 9.73468C18.2053 9.37227 17.0335 9 15.8647 9C14.0442 9 12.5576 9.88556 11.1893 11.7878C9.04224 14.7759 10.2672 17.9868 11.2529 20.5645C11.6976 21.7293 12.1173 22.8277 12.1173 23.6569C12.1173 27.869 13.0394 35 16.4957 35C18.8511 35 19.5515 32.4773 20.2298 30.0377C20.9494 27.4487 21.5331 25.7538 23.0049 25.7538C24.3732 25.7538 24.8209 27.2274 25.3987 29.657C25.9868 32.1388 26.6562 34.9521 29.5525 34.9521C33.721 34.9521 33.9338 25.5437 33.9338 23.6569C33.9338 22.8574 34.3401 21.7617 34.7702 20.6026C35.7543 17.9557 36.9793 14.6617 34.7258 11.7695ZM33.656 20.2232C33.1905 21.4768 32.7502 22.6614 32.7502 23.6555C32.7502 28.708 31.6522 33.8211 29.5525 33.8211C27.7364 33.8211 27.1852 32.074 26.5528 29.406C26.0208 27.1639 25.4164 24.6228 23.0063 24.6228C20.5135 24.6228 19.7569 27.3458 19.089 29.7473C18.396 32.2376 17.8418 33.8691 16.4971 33.8691C14.4964 33.8691 13.3024 28.6756 13.3024 23.6555C13.3024 22.6275 12.8458 21.4374 12.3655 20.1767C11.4257 17.7188 10.3633 14.9338 12.1661 12.4252C13.6304 10.389 14.9116 10.1267 15.8662 10.1267C16.8429 10.1267 17.8743 10.4553 18.9664 10.8036C20.2165 11.2012 21.508 11.613 22.9162 11.613C24.3436 11.613 25.6263 11.2097 26.8675 10.8191C27.9433 10.482 28.9584 10.1619 29.9337 10.1619C30.8971 10.1619 32.2049 10.4214 33.7786 12.4407C35.6523 14.852 34.5928 17.7061 33.656 20.2232Z" fill="white"/>
<path d="M67.72 32.18C65.64 32.18 63.76 31.72 62.08 30.8C60.42 29.88 59.11 28.61 58.15 26.99C57.21 25.35 56.74 23.52 56.74 21.5C56.74 19.48 57.21 17.66 58.15 16.04C59.11 14.4 60.43 13.12 62.11 12.2C63.79 11.28 65.67 10.82 67.75 10.82C69.31 10.82 70.75 11.08 72.07 11.6C73.39 12.12 74.51 12.88 75.43 13.88L74.02 15.29C72.38 13.63 70.31 12.8 67.81 12.8C66.15 12.8 64.64 13.18 63.28 13.94C61.92 14.7 60.85 15.74 60.07 17.06C59.31 18.38 58.93 19.86 58.93 21.5C58.93 23.14 59.31 24.62 60.07 25.94C60.85 27.26 61.92 28.3 63.28 29.06C64.64 29.82 66.15 30.2 67.81 30.2C70.33 30.2 72.4 29.36 74.02 27.68L75.43 29.09C74.51 30.09 73.38 30.86 72.04 31.4C70.72 31.92 69.28 32.18 67.72 32.18ZM85.3115 32.15C83.7915 32.15 82.4215 31.81 81.2015 31.13C79.9815 30.43 79.0215 29.47 78.3215 28.25C77.6215 27.03 77.2715 25.65 77.2715 24.11C77.2715 22.57 77.6215 21.19 78.3215 19.97C79.0215 18.75 79.9815 17.8 81.2015 17.12C82.4215 16.44 83.7915 16.1 85.3115 16.1C86.8315 16.1 88.2015 16.44 89.4215 17.12C90.6415 17.8 91.5915 18.75 92.2715 19.97C92.9715 21.19 93.3215 22.57 93.3215 24.11C93.3215 25.65 92.9715 27.03 92.2715 28.25C91.5915 29.47 90.6415 30.43 89.4215 31.13C88.2015 31.81 86.8315 32.15 85.3115 32.15ZM85.3115 30.26C86.4315 30.26 87.4315 30.01 88.3115 29.51C89.2115 28.99 89.9115 28.26 90.4115 27.32C90.9115 26.38 91.1615 25.31 91.1615 24.11C91.1615 22.91 90.9115 21.84 90.4115 20.9C89.9115 19.96 89.2115 19.24 88.3115 18.74C87.4315 18.22 86.4315 17.96 85.3115 17.96C84.1915 17.96 83.1815 18.22 82.2815 18.74C81.4015 19.24 80.7015 19.96 80.1815 20.9C79.6815 21.84 79.4315 22.91 79.4315 24.11C79.4315 25.31 79.6815 26.38 80.1815 27.32C80.7015 28.26 81.4015 28.99 82.2815 29.51C83.1815 30.01 84.1915 30.26 85.3115 30.26ZM97.8738 16.22H100.004V28.76L110.534 16.22H112.424V32H110.294V19.46L99.7938 32H97.8738V16.22ZM105.044 13.94C103.684 13.94 102.604 13.6 101.804 12.92C101.004 12.24 100.594 11.28 100.574 10.04H102.104C102.124 10.82 102.404 11.45 102.944 11.93C103.484 12.39 104.184 12.62 105.044 12.62C105.904 12.62 106.604 12.39 107.144 11.93C107.704 11.45 107.994 10.82 108.014 10.04H109.544C109.524 11.28 109.104 12.24 108.284 12.92C107.484 13.6 106.404 13.94 105.044 13.94ZM137.578 24.08C137.578 26.54 136.768 28.47 135.148 29.87C133.528 31.27 131.238 32.03 128.278 32.15V37.82H126.208V32.18C123.268 32.06 120.988 31.3 119.368 29.9C117.768 28.48 116.968 26.54 116.968 24.08C116.968 21.64 117.768 19.73 119.368 18.35C120.988 16.97 123.268 16.22 126.208 16.1V9.74H128.278V16.1C131.238 16.24 133.528 17 135.148 18.38C136.768 19.76 137.578 21.66 137.578 24.08ZM119.068 24.08C119.068 25.96 119.668 27.43 120.868 28.49C122.088 29.55 123.868 30.15 126.208 30.29V17.99C123.888 18.11 122.118 18.7 120.898 19.76C119.678 20.8 119.068 22.24 119.068 24.08ZM128.278 30.29C130.618 30.17 132.398 29.58 133.618 28.52C134.858 27.46 135.478 25.98 135.478 24.08C135.478 22.22 134.858 20.77 133.618 19.73C132.398 18.69 130.618 18.11 128.278 17.99V30.29ZM155.883 24.77H142.683C142.803 26.41 143.433 27.74 144.573 28.76C145.713 29.76 147.153 30.26 148.893 30.26C149.873 30.26 150.773 30.09 151.593 29.75C152.413 29.39 153.123 28.87 153.723 28.19L154.923 29.57C154.223 30.41 153.343 31.05 152.283 31.49C151.243 31.93 150.093 32.15 148.833 32.15C147.213 32.15 145.773 31.81 144.513 31.13C143.273 30.43 142.303 29.47 141.603 28.25C140.903 27.03 140.553 25.65 140.553 24.11C140.553 22.57 140.883 21.19 141.543 19.97C142.223 18.75 143.143 17.8 144.303 17.12C145.483 16.44 146.803 16.1 148.263 16.1C149.723 16.1 151.033 16.44 152.193 17.12C153.353 17.8 154.263 18.75 154.923 19.97C155.583 21.17 155.913 22.55 155.913 24.11L155.883 24.77ZM148.263 17.93C146.743 17.93 145.463 18.42 144.423 19.4C143.403 20.36 142.823 21.62 142.683 23.18H153.873C153.733 21.62 153.143 20.36 152.103 19.4C151.083 18.42 149.803 17.93 148.263 17.93ZM168.758 16.1C170.238 16.1 171.578 16.44 172.778 17.12C173.978 17.78 174.918 18.72 175.598 19.94C176.278 21.16 176.618 22.55 176.618 24.11C176.618 25.69 176.278 27.09 175.598 28.31C174.918 29.53 173.978 30.48 172.778 31.16C171.598 31.82 170.258 32.15 168.758 32.15C167.478 32.15 166.318 31.89 165.278 31.37C164.258 30.83 163.418 30.05 162.758 29.03V37.82H160.628V16.22H162.668V19.34C163.308 18.3 164.148 17.5 165.188 16.94C166.248 16.38 167.438 16.1 168.758 16.1ZM168.608 30.26C169.708 30.26 170.708 30.01 171.608 29.51C172.508 28.99 173.208 28.26 173.708 27.32C174.228 26.38 174.488 25.31 174.488 24.11C174.488 22.91 174.228 21.85 173.708 20.93C173.208 19.99 172.508 19.26 171.608 18.74C170.708 18.22 169.708 17.96 168.608 17.96C167.488 17.96 166.478 18.22 165.578 18.74C164.698 19.26 163.998 19.99 163.478 20.93C162.978 21.85 162.728 22.91 162.728 24.11C162.728 25.31 162.978 26.38 163.478 27.32C163.998 28.26 164.698 28.99 165.578 29.51C166.478 30.01 167.488 30.26 168.608 30.26Z" fill="black"/>
</svg>
