<svg width="192" height="192" viewBox="0 0 192 192" fill="none" xmlns="http://www.w3.org/2000/svg">
<path d="M191.904 0H0V191.904H191.904V0Z" fill="#ED1C24"/>
<path d="M70.251 118.518H27.3818L17.7538 145.223H3.83887L42.913 42.8995H54.7197L93.8641 145.223H80.0196L70.251 118.518ZM31.4578 107.414H66.2452L48.8164 59.5553L31.4578 107.414ZM107.638 145.223V42.8995H136.523C145.425 42.8995 153.295 44.8673 160.136 48.8028C166.977 52.7384 172.247 58.3372 175.948 65.5991C179.696 72.8611 181.594 81.2007 181.64 90.6178V97.1537C181.64 106.805 179.766 115.262 176.018 122.524C172.316 129.786 167 135.361 160.065 139.25C153.178 143.138 145.143 145.13 135.96 145.223H107.638ZM121.132 54.0034V134.19H135.328C145.729 134.19 153.81 130.957 159.573 124.492C165.383 118.026 168.288 108.82 168.288 96.8725V90.899C168.288 79.2797 165.548 70.2609 160.065 63.8422C154.631 57.3766 146.9 54.0971 136.874 54.0034H121.132Z" fill="white"/>
</svg>
