<svg width="1334" height="1334" viewBox="0 0 1334 1334" fill="none" xmlns="http://www.w3.org/2000/svg">
<rect width="1333.33" height="1333.33" fill="#ED1C24"/>
<path d="M488.098 823.453H190.246L123.352 1009H26.6719L298.156 298.062H380.188L652.16 1009H555.969L488.098 823.453ZM218.566 746.305H460.266L339.172 413.785L218.566 746.305ZM747.863 1009V298.062H948.547C1010.4 298.062 1065.08 311.734 1112.61 339.078C1160.14 366.422 1196.76 405.322 1222.47 455.777C1248.51 506.233 1261.7 564.176 1262.02 629.605V675.016C1262.02 742.073 1249 800.829 1222.96 851.285C1197.24 901.741 1160.3 940.478 1112.12 967.496C1064.27 994.514 1008.44 1008.35 944.641 1009H747.863ZM841.613 375.211V932.34H940.246C1012.51 932.34 1068.66 909.879 1108.7 864.957C1149.07 820.035 1169.25 756.07 1169.25 673.062V631.559C1169.25 550.829 1150.21 488.167 1112.12 443.57C1074.36 398.648 1020.65 375.862 950.988 375.211H841.613Z" fill="white"/>
</svg>
