<?xml version="1.0" encoding="UTF-8"?> <svg xmlns="http://www.w3.org/2000/svg" width="21" height="21" viewBox="0 0 21 21" fill="none"> <path fill-rule="evenodd" clip-rule="evenodd" d="M0 2C0 0.895431 0.895431 0 2 0H18C19.1046 0 20 0.895431 20 2V18C20 18.2081 19.9682 18.4089 19.9092 18.5976L14.6139 11.7894C14.2749 11.3534 13.6466 11.2749 13.2106 11.6139C12.7747 11.953 12.6962 12.5813 13.0352 13.0172L18.4302 19.9536C18.2916 19.984 18.1477 20 18 20H2C0.895431 20 0 19.1046 0 18V2ZM18.4302 19.9536L18.8074 20.4385C19.1464 20.8745 19.7747 20.953 20.2106 20.6139C20.6466 20.2749 20.7251 19.6466 20.3861 19.2106L19.9092 18.5976C19.697 19.2763 19.1327 19.7996 18.4302 19.9536ZM16 4H4V3H16V4ZM4 10H8V9H4V10ZM16 7H4V6H16V7ZM13.5702 10.0258L11.0607 9.3534L11.7331 11.863L13.5702 10.0258Z" fill="#969594"></path> </svg> 